<svg xmlns="http://www.w3.org/2000/svg" viewBox="0 0 120 100" fill="none" aria-hidden="true">
  <rect x="28" y="12" width="52" height="58" rx="8" fill="#FFFDF8" stroke="#1A1A1A" stroke-width="2.5"/>
  <line x1="28" y1="28" x2="80" y2="28" stroke="#1A1A1A" stroke-width="2"/>
  <circle cx="40" cy="20" r="2.5" fill="#E8A598"/>
  <circle cx="50" cy="20" r="2.5" fill="#F5D76E"/>
  <circle cx="60" cy="20" r="2.5" fill="#A8C5A0"/>
  <path d="M38 42h18M38 52h24M38 62h14" stroke="#D4C4B0" stroke-width="2" stroke-linecap="round"/>
  <path d="M18 78c8-6 16-8 24-6 10 2 18 0 26-8 6-6 14-8 22-4" stroke="#6B8F71" stroke-width="2.5" stroke-linecap="round"/>
  <ellipse cx="22" cy="72" rx="10" ry="6" fill="#C4B5E8" stroke="#1A1A1A" stroke-width="2"/>
  <path d="M14 72h16v8c0 4-3 6-8 6s-8-2-8-6v-8z" fill="#F5D76E" stroke="#1A1A1A" stroke-width="2" stroke-linejoin="round"/>
  <path d="M18 68c2-4 6-4 8 0" stroke="#1A1A1A" stroke-width="1.5" stroke-linecap="round"/>
</svg>
